<svg width="65" height="65" viewBox="0 0 65 65" fill="none" xmlns="http://www.w3.org/2000/svg">
<circle cx="32.5" cy="32.5" r="32.5" fill="#F5F5F5"/>
<g clip-path="url(#clip0_75_405)">
<path d="M43.5056 36.8825C48.7476 36.8825 52.997 32.6331 52.997 27.3911C52.997 22.1491 48.7476 17.8997 43.5056 17.8997C38.2636 17.8997 34.0142 22.1491 34.0142 27.3911C34.0142 32.6331 38.2636 36.8825 43.5056 36.8825Z" fill="#FED843"/>
<path d="M52.997 27.3911C52.997 22.1491 48.7476 17.8997 43.5056 17.8997V36.8825C48.7476 36.8826 52.997 32.6331 52.997 27.3911Z" fill="#FABE2C"/>
<path d="M52.6174 40.1941C51.9424 39.2238 50.6347 38.9918 49.6856 39.6668L44.0329 43.6321C43.8652 43.7295 43.6797 43.7836 43.5056 43.867C41.797 44.6854 39.8191 44.8563 38.0006 44.2437L31.4972 42.0923C30.9488 41.9236 30.6534 41.3119 30.8433 40.7636C31.012 40.2363 31.5604 39.941 32.1088 40.0887C32.1299 40.0887 39.4137 42.451 39.4137 42.451C40.6403 42.8186 41.73 42.1246 42.0713 41.1011C42.4298 39.9831 41.8182 38.802 40.7214 38.4435L30.8012 35.1953C27.6352 34.0427 22.9175 34.8559 20.459 38.4856L19.1091 42.3025V46.7417L31.6027 49.58C33.1185 49.9134 34.606 50.1002 36.039 50.1002H36.271C38.79 50.0702 41.2267 49.5145 43.5056 48.5768C44.4324 48.1954 45.3396 47.7632 46.2055 47.2387L52.0901 43.1258C53.0813 42.4298 53.2712 41.1221 52.6174 40.1941Z" fill="#FFE1BA"/>
<path d="M52.0901 43.1259C53.0813 42.4298 53.2712 41.1221 52.6174 40.1941C51.9424 39.2238 50.6347 38.9918 49.6856 39.6668L44.0329 43.6321C43.8652 43.7295 43.6797 43.7836 43.5056 43.867V48.5768C44.4324 48.1955 45.3396 47.7632 46.2055 47.2387L52.0901 43.1259Z" fill="#FFBFAB"/>
<path d="M20.1638 49.5379H18.0546C17.4722 49.5379 17 49.0657 17 48.4832V37.9372C17 37.3548 17.4722 36.8826 18.0546 36.8826H20.1638C20.7462 36.8826 21.2184 37.3548 21.2184 37.9372V48.4832C21.2184 49.0657 20.7462 49.5379 20.1638 49.5379Z" fill="#384949"/>
<path d="M40.8693 25.282C41.4517 25.282 41.9239 24.8098 41.9239 24.2274C41.9239 23.6449 41.4517 23.1728 40.8693 23.1728C40.2869 23.1728 39.8147 23.6449 39.8147 24.2274C39.8147 24.8098 40.2869 25.282 40.8693 25.282Z" fill="#FABE2C"/>
<path d="M46.1422 31.6095C46.7247 31.6095 47.1969 31.1374 47.1969 30.5549C47.1969 29.9725 46.7247 29.5003 46.1422 29.5003C45.5598 29.5003 45.0876 29.9725 45.0876 30.5549C45.0876 31.1374 45.5598 31.6095 46.1422 31.6095Z" fill="#FF9100"/>
<path d="M46.8177 23.4168C46.3697 23.045 45.7044 23.1058 45.3316 23.5517L40.0585 29.8793C39.6857 30.3273 39.7465 30.9927 40.1935 31.3655C40.6445 31.739 41.3075 31.6759 41.6796 31.2306L46.9526 24.903C47.3255 24.455 47.2647 23.7896 46.8177 23.4168Z" fill="#FABE2C"/>
<path d="M46.8177 23.4168C46.3697 23.045 45.7044 23.1058 45.3316 23.5517L43.5056 25.7429V29.0393L46.9526 24.9029C47.3255 24.455 47.2647 23.7896 46.8177 23.4168Z" fill="#FF9100"/>
</g>
<defs>
<clipPath id="clip0_75_405">
<rect width="36" height="36" fill="white" transform="translate(17 16)"/>
</clipPath>
</defs>
</svg>
