<svg width="65" height="65" viewBox="0 0 65 65" fill="none" xmlns="http://www.w3.org/2000/svg">
<circle cx="32.5" cy="32.5" r="32.5" fill="#F5F5F5"/>
<path fill-rule="evenodd" clip-rule="evenodd" d="M48.75 33C48.75 31.7574 47.7426 30.75 46.5 30.75H19.5C18.2574 30.75 17.25 31.7574 17.25 33V46.5C17.25 47.7426 18.2574 48.75 19.5 48.75H46.5C47.7426 48.75 48.75 47.7426 48.75 46.5V33Z" fill="#3DDC80"/>
<path fill-rule="evenodd" clip-rule="evenodd" d="M46.5 36.1427C46.5 35.6662 46.1991 35.241 45.7491 35.0824C45.4284 35.0053 45.1455 34.827 44.9092 34.5908C44.673 34.3545 44.4947 34.0716 44.3833 33.7628C44.2297 33.3279 43.8186 33.0366 43.3573 33.0366C38.1609 33 27.8391 33 22.6427 33C22.1663 33 21.741 33.3009 21.5824 33.7509C21.5053 34.0716 21.327 34.3545 21.0908 34.5908C20.8545 34.827 20.5716 35.0053 20.2628 35.1167C19.8279 35.2703 19.5366 35.6814 19.5366 36.1427C19.5 38.3128 19.5 41.1872 19.5 43.3573C19.5 43.8338 19.8009 44.259 20.2509 44.4176C20.5716 44.4947 20.8545 44.673 21.0908 44.9092C21.327 45.1455 21.5053 45.4284 21.6167 45.7372C21.7703 46.1721 22.1814 46.4634 22.6427 46.4634C27.8391 46.5 38.1609 46.5 43.3573 46.5C43.8337 46.5 44.259 46.199 44.4176 45.7491C44.4947 45.4284 44.673 45.1455 44.9092 44.9092C45.1455 44.673 45.4284 44.4947 45.7372 44.3833C46.1721 44.2297 46.4634 43.8186 46.4634 43.3573C46.5 41.1872 46.5 38.3128 46.5 36.1427Z" fill="#1DBC60"/>
<path d="M33 44.25C35.4853 44.25 37.5 42.2353 37.5 39.75C37.5 37.2647 35.4853 35.25 33 35.25C30.5147 35.25 28.5 37.2647 28.5 39.75C28.5 42.2353 30.5147 44.25 33 44.25Z" fill="#3DDC80"/>
<path d="M24 40.875C24.6213 40.875 25.125 40.3713 25.125 39.75C25.125 39.1287 24.6213 38.625 24 38.625C23.3787 38.625 22.875 39.1287 22.875 39.75C22.875 40.3713 23.3787 40.875 24 40.875Z" fill="#3DDC80"/>
<path d="M42 40.875C42.6213 40.875 43.125 40.3713 43.125 39.75C43.125 39.1287 42.6213 38.625 42 38.625C41.3787 38.625 40.875 39.1287 40.875 39.75C40.875 40.3713 41.3787 40.875 42 40.875Z" fill="#3DDC80"/>
<path fill-rule="evenodd" clip-rule="evenodd" d="M25.1249 24V27.375C25.1249 27.9966 25.6284 28.5 26.2499 28.5H28.4999C29.1215 28.5 29.6249 27.9966 29.6249 27.375V24H30.7499C31.1763 24 31.5656 23.7592 31.7563 23.3779C31.9469 22.9971 31.9059 22.5409 31.65 22.2L28.275 17.7C28.0623 17.4165 27.7293 17.25 27.3749 17.25C27.0206 17.25 26.6876 17.4165 26.4749 17.7L23.0999 22.2C22.844 22.5409 22.8029 22.9971 22.9936 23.3779C23.1843 23.7592 23.5736 24 23.9999 24H25.1249Z" fill="#3DDC80"/>
<path fill-rule="evenodd" clip-rule="evenodd" d="M36.3749 21.75V18.375C36.3749 17.7534 36.8784 17.25 37.4999 17.25H39.7499C40.3715 17.25 40.8749 17.7534 40.8749 18.375V21.75H41.9999C42.4263 21.75 42.8156 21.9908 43.0063 22.3721C43.1969 22.7529 43.1559 23.2091 42.9 23.55L39.525 28.05C39.3123 28.3335 38.9793 28.5 38.6249 28.5C38.2706 28.5 37.9376 28.3335 37.7249 28.05L34.3499 23.55C34.094 23.2091 34.0529 22.7529 34.2436 22.3721C34.4343 21.9908 34.8236 21.75 35.2499 21.75H36.3749Z" fill="#FF7B6C"/>
<path fill-rule="evenodd" clip-rule="evenodd" d="M49.3125 33C49.3125 31.4469 48.0531 30.1875 46.5 30.1875H19.5C17.9469 30.1875 16.6875 31.4469 16.6875 33V46.5C16.6875 48.0531 17.9469 49.3125 19.5 49.3125H46.5C48.0531 49.3125 49.3125 48.0531 49.3125 46.5V33ZM48.1875 33V46.5C48.1875 47.4321 47.4321 48.1875 46.5 48.1875H19.5C18.5679 48.1875 17.8125 47.4321 17.8125 46.5V33C17.8125 32.0679 18.5679 31.3125 19.5 31.3125H46.5C47.4321 31.3125 48.1875 32.0679 48.1875 33Z" fill="black"/>
<path fill-rule="evenodd" clip-rule="evenodd" d="M47.0625 36.1427C47.0619 35.4272 46.6108 34.7899 45.9364 34.5519C45.9178 34.5457 45.8993 34.5401 45.8807 34.5356C45.6608 34.4827 45.4689 34.3556 45.3069 34.193C45.1297 34.0159 44.9959 33.8033 44.9126 33.5721C44.6809 32.9156 44.0571 32.4741 43.3573 32.4741C38.1643 32.4375 27.8402 32.4375 22.6427 32.4375C21.9272 32.4381 21.2899 32.8892 21.0519 33.5636C21.0458 33.5822 21.0401 33.6008 21.0356 33.6193C20.9827 33.8398 20.8556 34.031 20.6931 34.193C20.5159 34.3702 20.3032 34.5041 20.0721 34.5874C19.4179 34.8186 18.9769 35.439 18.9741 36.1365C18.9375 38.3089 18.9375 41.185 18.9375 43.3573C18.9381 44.0728 19.3892 44.7101 20.0636 44.9481C20.0822 44.9543 20.1007 44.9599 20.1193 44.9644C20.3392 45.0173 20.5311 45.1444 20.6931 45.307C20.8703 45.4841 21.0041 45.6967 21.0874 45.9279C21.3191 46.5844 21.9429 47.0259 22.6427 47.0259C27.8357 47.0625 38.1598 47.0625 43.3573 47.0625C44.0728 47.0619 44.7101 46.6108 44.9481 45.9364C44.9542 45.9178 44.9599 45.8992 44.9644 45.8807C45.0173 45.6602 45.1444 45.469 45.3069 45.307C45.4841 45.1298 45.6968 44.9959 45.9279 44.9126C46.5821 44.6814 47.0231 44.061 47.0259 43.3635C47.0625 41.1911 47.0625 38.315 47.0625 36.1427ZM45.9375 36.1433C45.9375 38.31 45.9375 41.1804 45.9009 43.3477V43.3573C45.9009 43.5801 45.7603 43.7786 45.5499 43.8529C45.5488 43.8534 45.5477 43.8534 45.5466 43.854C45.1607 43.9929 44.8063 44.2157 44.511 44.511C44.2095 44.8131 43.9845 45.1759 43.8793 45.5831C43.7933 45.7969 43.5874 45.9375 43.3568 45.9375C38.1615 45.9375 27.8419 45.9375 22.6472 45.9009C22.6455 45.9009 22.6444 45.9009 22.6427 45.9009C22.4199 45.9009 22.2214 45.7603 22.1471 45.5499C22.1466 45.5488 22.1466 45.5477 22.146 45.5466C22.0071 45.1607 21.7843 44.8063 21.489 44.511C21.1869 44.2095 20.8241 43.9845 20.4169 43.8793C20.2031 43.7933 20.0625 43.5874 20.0625 43.3567C20.0625 41.19 20.0625 38.3196 20.0991 36.1523C20.0991 36.1494 20.0991 36.146 20.0991 36.1427C20.0991 35.9199 20.2397 35.7214 20.4501 35.6471C20.4512 35.6466 20.4523 35.6466 20.4534 35.646C20.8393 35.5071 21.1937 35.2843 21.489 34.989C21.7905 34.6869 22.0155 34.3241 22.1207 33.9169C22.2067 33.7031 22.4126 33.5625 22.6432 33.5625C27.8385 33.5625 38.1581 33.5625 43.3528 33.5991H43.3573C43.5801 33.5991 43.7786 33.7397 43.8529 33.9501C43.8534 33.9512 43.8534 33.9523 43.854 33.9534C43.9929 34.3393 44.2157 34.6937 44.511 34.989C44.8131 35.2905 45.1759 35.5155 45.5831 35.6207C45.7969 35.7067 45.9375 35.9126 45.9375 36.1433Z" fill="black"/>
<path fill-rule="evenodd" clip-rule="evenodd" d="M33 34.6875C30.2061 34.6875 27.9375 36.9561 27.9375 39.75C27.9375 42.5439 30.2061 44.8125 33 44.8125C35.7939 44.8125 38.0625 42.5439 38.0625 39.75C38.0625 36.9561 35.7939 34.6875 33 34.6875ZM33 35.8125C35.1729 35.8125 36.9375 37.5771 36.9375 39.75C36.9375 41.9229 35.1729 43.6875 33 43.6875C30.8271 43.6875 29.0625 41.9229 29.0625 39.75C29.0625 37.5771 30.8271 35.8125 33 35.8125Z" fill="black"/>
<path fill-rule="evenodd" clip-rule="evenodd" d="M24 38.0625C23.0685 38.0625 22.3125 38.8185 22.3125 39.75C22.3125 40.6815 23.0685 41.4375 24 41.4375C24.9315 41.4375 25.6875 40.6815 25.6875 39.75C25.6875 38.8185 24.9315 38.0625 24 38.0625ZM24 39.1875C24.3105 39.1875 24.5625 39.4395 24.5625 39.75C24.5625 40.0605 24.3105 40.3125 24 40.3125C23.6895 40.3125 23.4375 40.0605 23.4375 39.75C23.4375 39.4395 23.6895 39.1875 24 39.1875Z" fill="black"/>
<path fill-rule="evenodd" clip-rule="evenodd" d="M42 38.0625C41.0685 38.0625 40.3125 38.8185 40.3125 39.75C40.3125 40.6815 41.0685 41.4375 42 41.4375C42.9315 41.4375 43.6875 40.6815 43.6875 39.75C43.6875 38.8185 42.9315 38.0625 42 38.0625ZM42 39.1875C42.3105 39.1875 42.5625 39.4395 42.5625 39.75C42.5625 40.0605 42.3105 40.3125 42 40.3125C41.6895 40.3125 41.4375 40.0605 41.4375 39.75C41.4375 39.4395 41.6895 39.1875 42 39.1875Z" fill="black"/>
<path fill-rule="evenodd" clip-rule="evenodd" d="M24.5624 24.5625V27.375C24.5624 28.3071 25.3178 29.0625 26.2499 29.0625H28.4999C29.432 29.0625 30.1874 28.3071 30.1874 27.375V24.5625H30.7499C31.3889 24.5625 31.9733 24.2014 32.2591 23.6299C32.5448 23.0578 32.4835 22.3738 32.0999 21.8625L28.7249 17.3625C28.406 16.9378 27.9059 16.6875 27.3749 16.6875C26.8439 16.6875 26.3438 16.9378 26.0249 17.3625L22.6499 21.8625C22.2663 22.3738 22.205 23.0578 22.4907 23.6299C22.7765 24.2014 23.3609 24.5625 23.9999 24.5625H24.5624ZM25.6874 24C25.6874 23.6895 25.4354 23.4375 25.1249 23.4375H23.9999C23.7867 23.4375 23.5921 23.3171 23.497 23.1264C23.4014 22.9358 23.4222 22.708 23.5499 22.5375L26.9249 18.0375C27.0312 17.8958 27.1977 17.8125 27.3749 17.8125C27.5521 17.8125 27.7186 17.8958 27.8249 18.0375L31.1999 22.5375C31.3276 22.708 31.3484 22.9358 31.2528 23.1264C31.1577 23.3171 30.9631 23.4375 30.7499 23.4375H29.6249C29.3144 23.4375 29.0624 23.6895 29.0624 24V27.375C29.0624 27.6855 28.8104 27.9375 28.4999 27.9375H26.2499C25.9394 27.9375 25.6874 27.6855 25.6874 27.375V24Z" fill="black"/>
<path fill-rule="evenodd" clip-rule="evenodd" d="M35.8124 21.1875H35.2499C34.6109 21.1875 34.0265 21.5486 33.7407 22.1201C33.455 22.6922 33.5163 23.3762 33.8999 23.8875L37.2749 28.3875C37.5938 28.8122 38.0939 29.0625 38.6249 29.0625C39.1559 29.0625 39.656 28.8122 39.9749 28.3875L43.3499 23.8875C43.7335 23.3762 43.7948 22.6922 43.5091 22.1201C43.2233 21.5486 42.6389 21.1875 41.9999 21.1875H41.4374V18.375C41.4374 17.4429 40.682 16.6875 39.7499 16.6875H37.4999C36.5678 16.6875 35.8124 17.4429 35.8124 18.375V21.1875ZM36.3749 22.3125C36.6854 22.3125 36.9374 22.0605 36.9374 21.75V18.375C36.9374 18.0645 37.1894 17.8125 37.4999 17.8125H39.7499C40.0604 17.8125 40.3124 18.0645 40.3124 18.375V21.75C40.3124 22.0605 40.5644 22.3125 40.8749 22.3125H41.9999C42.2131 22.3125 42.4077 22.4329 42.5028 22.6236C42.5984 22.8142 42.5776 23.042 42.4499 23.2125L39.0749 27.7125C38.9686 27.8542 38.8021 27.9375 38.6249 27.9375C38.4477 27.9375 38.2812 27.8542 38.1749 27.7125L34.7999 23.2125C34.6722 23.042 34.6514 22.8142 34.747 22.6236C34.8421 22.4329 35.0367 22.3125 35.2499 22.3125H36.3749Z" fill="black"/>
</svg>
