<svg width="140" height="35" viewBox="0 0 140 35" fill="none" xmlns="http://www.w3.org/2000/svg">
<path opacity="0.1" fill-rule="evenodd" clip-rule="evenodd" d="M1.01001 23.7763C1.01001 23.7763 6.42229 22.9833 12.5757 24.8884C24.2792 28.5118 24.9469 21.8765 29.2866 18.6771C33.257 15.75 36.5453 17.5359 40.966 21.1155C44.2266 23.7556 48.9783 28.1873 53.8993 27.4739C58.3976 26.8217 61.5865 21.6239 67.8216 20.3021C72.7633 19.2544 76.7793 22.1326 82.4697 21.1155C90.1892 19.7357 93.6373 11.6128 99.1545 11.6128C105.964 11.6128 110.758 4.74268 116.953 4.74268C123.111 4.74268 123.947 8.78247 130.683 11.6128C135.833 13.7766 138.311 11.6128 138.311 11.6128V34.7995H1.01001V23.7763Z" fill="url(#paint0_linear_75_822)"/>
<path d="M1.01001 20.1749C1.01001 20.1749 6.42229 19.3933 12.5757 21.2708C24.2792 24.8418 24.9469 18.3026 29.2866 15.1495C33.257 12.2647 36.5453 14.0248 40.966 17.5526C44.2266 20.1545 48.9783 24.5221 53.8993 23.8189C58.3976 23.1762 61.5865 18.0537 67.8216 16.7509C72.7633 15.7184 76.7793 18.555 82.4697 17.5526C90.1892 16.1928 93.6373 8.18742 99.1545 8.18742C105.964 8.18742 110.758 1.40039 116.953 1.40039C123.111 1.40039 123.438 5.39807 130.174 8.18742C135.324 10.3199 138.311 8.18742 138.311 8.18742" stroke="#1B59F8" stroke-width="2" stroke-linecap="round" stroke-linejoin="round"/>
<defs>
<linearGradient id="paint0_linear_75_822" x1="25.8238" y1="19.9937" x2="25.8238" y2="34.7995" gradientUnits="userSpaceOnUse">
<stop stop-color="#0062FF"/>
<stop offset="1" stop-color="white" stop-opacity="0.01"/>
</linearGradient>
</defs>
</svg>
