<svg width="65" height="65" viewBox="0 0 65 65" fill="none" xmlns="http://www.w3.org/2000/svg">
<circle cx="32.5" cy="32.5" r="32.5" fill="#F5F5F5"/>
<g clip-path="url(#clip0_75_712)">
<path d="M17.5684 31.623H17.2812V31.3359C17.2812 31.1309 17.1035 30.9531 16.8984 30.9531C16.6934 30.9531 16.5156 31.1309 16.5156 31.3359V31.623H16.2285C16.0234 31.623 15.8457 31.8008 15.8457 32.0059C15.8457 32.2109 16.0234 32.3887 16.2285 32.3887H16.5156V32.6758C16.5156 32.8809 16.6934 33.0586 16.8984 33.0586C17.1035 33.0586 17.2812 32.8809 17.2812 32.6758V32.3887H17.5684C17.7734 32.3887 17.9512 32.2109 17.9512 32.0059C17.9512 31.7871 17.7871 31.623 17.5684 31.623Z" fill="#70D6F9"/>
<path d="M43.4355 16.8574C42.8887 16.7617 42.4648 16.3379 42.3555 15.8047C42.3555 15.791 42.3418 15.7773 42.3281 15.791C42.3145 15.791 42.3145 15.8047 42.3145 15.8047C42.2051 16.3515 41.7812 16.7617 41.2344 16.8574C41.2207 16.8574 41.207 16.8711 41.207 16.8848C41.207 16.8984 41.2207 16.8984 41.2344 16.9121C41.7812 17.0078 42.2051 17.4316 42.3145 17.9648C42.3145 17.9785 42.3281 17.9922 42.3418 17.9785C42.3555 17.9785 42.3555 17.9648 42.3555 17.9648C42.4648 17.418 42.8887 17.0078 43.4355 16.9121C43.4492 16.9121 43.4629 16.8984 43.4629 16.8848C43.4629 16.8711 43.4492 16.8574 43.4355 16.8574Z" fill="#FC657E"/>
<path d="M39.4297 19.0586C39.6562 19.0586 39.8398 18.875 39.8398 18.6484C39.8398 18.4219 39.6562 18.2383 39.4297 18.2383C39.2032 18.2383 39.0195 18.4219 39.0195 18.6484C39.0195 18.875 39.2032 19.0586 39.4297 19.0586Z" fill="#F5C84C"/>
<path d="M43.3945 36.9688C43.6211 36.9688 43.8047 36.7851 43.8047 36.5586C43.8047 36.3321 43.6211 36.1484 43.3945 36.1484C43.168 36.1484 42.9844 36.3321 42.9844 36.5586C42.9844 36.7851 43.168 36.9688 43.3945 36.9688Z" fill="#87D147"/>
<path d="M18.6484 29.1758C18.875 29.1758 19.0586 28.9921 19.0586 28.7656C19.0586 28.5391 18.875 28.3555 18.6484 28.3555C18.4219 28.3555 18.2383 28.5391 18.2383 28.7656C18.2383 28.9921 18.4219 29.1758 18.6484 29.1758Z" fill="#F5C84C"/>
<path d="M14.6973 35.1914H17.8418C18.0469 35.1914 18.1973 35.3555 18.1973 35.5469V46.5117C18.1973 46.7168 18.0332 46.8672 17.8418 46.8672H14.6973C14.4922 46.8672 14.3418 46.7031 14.3418 46.5117V35.5469C14.3418 35.3555 14.5059 35.1914 14.6973 35.1914Z" fill="#70D6F9"/>
<path d="M19.8789 35.9023H18.2109V46.0059H19.8789C20.084 46.0059 20.2344 45.8418 20.2344 45.6504V36.2578C20.2344 36.0527 20.0703 35.9023 19.8789 35.9023Z" fill="#DAE6F1"/>
<path d="M42.7383 38.9512C42.3691 38.1992 41.4668 37.8848 40.7148 38.2539L34.7539 41.084C35.1367 40.8242 35.3965 40.4824 35.3965 40.0312C35.3965 38.1035 32.8535 38.4453 30.8301 38.4453C29.5723 38.4453 27.6035 37.7754 26.2773 37.2558C25.3203 36.8867 24.2949 36.75 23.2695 36.8594L20.2344 37.1738V44.2422L21.5332 44.1055C22.8184 43.9687 24.1172 44.0644 25.375 44.3926L29.5312 45.4863C31.8828 46.1016 34.3984 45.7734 36.5039 44.5566L42.2051 40.9336C42.8477 40.4961 43.0801 39.6621 42.7383 38.9512Z" fill="#F9D0B4"/>
<path d="M17.8555 47.2227H14.7109C14.3281 47.2227 14.0137 46.9082 14.0137 46.5254V35.5605C14.0137 35.1777 14.3281 34.8633 14.7109 34.8633H17.8555C18.2383 34.8633 18.5527 35.1777 18.5527 35.5605V46.5254C18.5527 46.9082 18.2383 47.2227 17.8555 47.2227ZM14.6973 35.5332C14.6836 35.5332 14.6836 35.5469 14.6836 35.5469V46.5117C14.6836 46.5254 14.6973 46.5254 14.6973 46.5254H17.8418C17.8555 46.5254 17.8555 46.5117 17.8555 46.5117V35.5469C17.8555 35.5332 17.8418 35.5332 17.8418 35.5332H14.6973Z" fill="black"/>
<path d="M19.8789 46.3477H18.2109C18.0195 46.3477 17.8691 46.1973 17.8691 46.0059V35.9023C17.8691 35.7109 18.0195 35.5605 18.2109 35.5605H19.8789C20.2617 35.5605 20.5762 35.875 20.5762 36.2578V45.6504C20.5762 46.0332 20.2617 46.3477 19.8789 46.3477ZM18.5527 45.6641H19.8789C19.8926 45.6641 19.8926 45.6504 19.8926 45.6504V36.2715C19.8926 36.2578 19.8789 36.2578 19.8789 36.2578H18.5527V45.6641Z" fill="black"/>
<path d="M29.4355 45.8144L25.2793 44.7207C24.0625 44.4062 22.8047 44.3105 21.5605 44.4473L20.2617 44.584C20.0703 44.5976 19.9062 44.4746 19.8789 44.2832C19.8789 44.2695 19.8789 44.2559 19.8789 44.2422V37.1738C19.8789 36.9961 20.0156 36.8457 20.1797 36.832L23.2148 36.5176C24.2812 36.4082 25.375 36.5449 26.373 36.9414C28.3145 37.6934 29.8867 38.1035 30.8027 38.1035C31.0625 38.1035 31.3496 38.1035 31.623 38.0898C33.0312 38.0625 34.4805 38.0215 35.2324 38.7598C35.5605 39.1016 35.7383 39.5527 35.7109 40.0176C35.7109 40.0859 35.7109 40.168 35.6973 40.2363L40.5508 37.9394C41.4805 37.5019 42.6016 37.8984 43.0391 38.8281C43.4492 39.6758 43.1484 40.7012 42.3555 41.207L36.6543 44.8301C36.6543 44.8301 36.6406 44.8301 36.6406 44.8437C34.4805 46.1016 31.8691 46.457 29.4355 45.8144ZM25.4434 44.0644L29.5996 45.1582C31.8691 45.7598 34.2754 45.4316 36.3125 44.2559L42 40.6328C42.5469 40.2773 42.7109 39.5527 42.3691 39.0059C42.0547 38.5 41.3984 38.3086 40.8652 38.5684L34.9316 41.3848C33.6055 42.2734 31.0625 42.3144 30.6934 42.3144C30.502 42.3144 30.3516 42.1641 30.3516 41.9727C30.3516 41.7812 30.502 41.6309 30.6934 41.6309C31.541 41.6309 33.5918 41.4668 34.5488 40.8242C34.5625 40.8105 34.5762 40.8105 34.5898 40.7969C34.877 40.5918 35.0547 40.3457 35.0547 40.0312C35.0684 39.7441 34.9727 39.4707 34.7812 39.2519C34.2344 38.7187 32.8672 38.7461 31.6641 38.7734C31.3906 38.7734 31.1035 38.7871 30.8301 38.7871C29.5449 38.7871 27.5762 38.1309 26.1543 37.5703C25.252 37.2148 24.2676 37.0918 23.3105 37.1875L20.5898 37.4746V43.8594L21.5059 43.7637C22.8184 43.6269 24.1582 43.7226 25.4434 44.0644Z" fill="black"/>
<path d="M42.6152 32.0469C42.5879 32.1152 42.5195 32.1563 42.4375 32.1289C42.4102 32.1152 42.3691 32.0879 42.3555 32.0605L41.6172 30.625C41.5762 30.5566 41.4941 30.5293 41.4395 30.5703L40.0039 31.3086C39.9355 31.3359 39.8535 31.3086 39.8262 31.2402C39.8125 31.2129 39.8125 31.1719 39.8125 31.1445L41.1113 27.1113C41.002 27.0703 40.9062 27.0156 40.8379 26.9473C40.6328 26.7422 40.6191 26.373 40.4551 26.127C40.291 25.8809 39.9629 25.7305 39.8398 25.457C39.7305 25.1836 39.8535 24.8418 39.7988 24.5547C39.7441 24.2676 39.498 24.0078 39.498 23.707C39.498 23.4062 39.7441 23.1328 39.7988 22.8594C39.8535 22.5723 39.7305 22.2168 39.8398 21.957C39.9492 21.6836 40.291 21.5332 40.4551 21.2871C40.5371 21.1504 40.5918 21.0137 40.6328 20.8633H21.8066C21.4375 20.8633 21.1367 21.1641 21.1367 21.5332V33.4688C21.1367 33.8379 21.4375 34.1387 21.8066 34.1387H42.6836C43.0527 34.1387 43.3535 33.8379 43.3535 33.4688V29.75L42.6152 32.0469Z" fill="#87D147"/>
<path d="M40.0039 31.3223C39.9355 31.3496 39.8535 31.3223 39.8262 31.2539C39.8125 31.2266 39.8125 31.1855 39.8125 31.1582L41.1113 27.125C41.002 27.084 40.9063 27.0293 40.8379 26.9609C40.6328 26.7559 40.6191 26.3867 40.4551 26.1406C40.291 25.8945 39.9629 25.7441 39.8398 25.4707C39.7305 25.1973 39.8535 24.8555 39.7988 24.5684C39.7441 24.2813 39.498 24.0215 39.498 23.7207C39.498 23.4473 39.7168 23.1875 39.7852 22.9277C39.6895 22.75 39.6211 22.5586 39.5664 22.3672C39.5254 22.2441 39.4297 22.1758 39.3066 22.1758H25.2246C25.1016 22.1758 24.9922 22.2578 24.9648 22.3672C24.6367 23.4609 23.7754 24.3223 22.6816 24.6504C22.5586 24.6914 22.4902 24.7871 22.4902 24.9102V30.0508C22.4902 30.1738 22.5723 30.2832 22.6816 30.3105C23.7754 30.6387 24.6367 31.5 24.9648 32.5938C25.0059 32.7168 25.1016 32.7852 25.2246 32.7852H39.3066C39.4297 32.7852 39.5391 32.7031 39.5664 32.5938C39.7578 31.9648 40.127 31.4043 40.6191 30.9805L40.0039 31.3223Z" fill="#B2E26D"/>
<path d="M32.2383 31.2402C34.3072 31.2402 35.9844 29.5631 35.9844 27.4941C35.9844 25.4252 34.3072 23.748 32.2383 23.748C30.1694 23.748 28.4922 25.4252 28.4922 27.4941C28.4922 29.5631 30.1694 31.2402 32.2383 31.2402Z" fill="#87D147"/>
<path d="M42.6836 34.4668H21.8066C21.2461 34.4668 20.7949 34.0156 20.7949 33.4551V21.5195C20.7949 20.959 21.2461 20.5078 21.8066 20.5078H40.6191C40.8105 20.5078 40.9609 20.6582 40.9609 20.8496C40.9609 20.8906 40.9609 20.918 40.9473 20.959L40.9336 21.0137C40.8926 21.1777 40.8242 21.3281 40.7422 21.4648C40.6465 21.6016 40.5371 21.7109 40.4004 21.8203C40.3047 21.8887 40.2227 21.9707 40.1543 22.0801C40.127 22.1895 40.127 22.3125 40.1406 22.4219C40.1543 22.5859 40.1543 22.75 40.127 22.9141C40.0859 23.0781 40.0312 23.2285 39.9492 23.3652C39.8809 23.4609 39.8398 23.584 39.8262 23.6934C39.8398 23.8164 39.8809 23.9258 39.9492 24.0215C40.0312 24.1582 40.0859 24.3086 40.127 24.4727C40.1543 24.6367 40.1543 24.8008 40.1406 24.9648C40.127 25.0742 40.127 25.1973 40.1543 25.3066C40.2227 25.4023 40.3047 25.498 40.4004 25.5664C40.6738 25.7578 40.8652 26.0449 40.9336 26.373C40.9609 26.4824 41.0156 26.5918 41.084 26.6875C41.125 26.7285 41.1797 26.7559 41.248 26.7832C41.4121 26.8516 41.5078 27.0293 41.4531 27.207L40.3047 30.7754L41.3027 30.2695C41.5352 30.1465 41.8223 30.2422 41.9453 30.4746L42.4512 31.4727L43.0391 29.6406C43.0938 29.4629 43.2852 29.3672 43.4629 29.4219C43.5996 29.4629 43.6953 29.5996 43.6953 29.75V33.4687C43.6953 34.0156 43.2441 34.4668 42.6836 34.4668ZM21.8066 21.2051C21.6289 21.2051 21.4785 21.3555 21.4785 21.5332V33.4687C21.4785 33.6465 21.6289 33.7969 21.8066 33.7969H42.6836C42.8613 33.7969 43.0117 33.6465 43.0117 33.4687V31.9375L42.9434 32.1699C42.8613 32.416 42.5879 32.5527 42.3418 32.4844C42.2188 32.4434 42.123 32.3613 42.0684 32.252L41.4258 31.0078L40.1816 31.6504C39.9492 31.7734 39.6621 31.6777 39.5391 31.4453C39.4844 31.3359 39.4707 31.1992 39.5117 31.0762L40.7148 27.3164C40.6738 27.2891 40.6465 27.2617 40.6055 27.2207C40.4551 27.0566 40.3457 26.8516 40.291 26.6328C40.2637 26.5371 40.2227 26.4414 40.168 26.3457C40.0996 26.2637 40.0312 26.1953 39.9492 26.127C39.7715 25.9902 39.6211 25.8125 39.5254 25.6074C39.457 25.4023 39.4297 25.1699 39.4707 24.9512C39.4844 24.8418 39.4844 24.7461 39.4707 24.6367C39.4434 24.541 39.4023 24.4453 39.3613 24.3633C39.2383 24.1719 39.1699 23.9531 39.1562 23.7207C39.1699 23.4883 39.2383 23.2695 39.3613 23.0781C39.416 22.9961 39.4434 22.9004 39.4707 22.8047C39.4844 22.6953 39.4844 22.5996 39.4707 22.4902C39.4434 22.2715 39.457 22.0391 39.5254 21.834C39.6211 21.6289 39.7715 21.4512 39.9492 21.3145C39.9902 21.2734 40.0312 21.2461 40.0723 21.2051H21.8066Z" fill="black"/>
<path d="M26.4687 27.8359H25.6758C25.4844 27.8359 25.334 27.6855 25.334 27.4941C25.334 27.3027 25.4844 27.1523 25.6758 27.1523H26.4687C26.6602 27.1523 26.8105 27.3027 26.8105 27.4941C26.8105 27.6855 26.6465 27.8359 26.4687 27.8359Z" fill="black"/>
<path d="M38.8145 27.8359H38.0215C37.8301 27.8359 37.6797 27.6855 37.6797 27.4941C37.6797 27.3027 37.8301 27.1523 38.0215 27.1523H38.8145C39.0059 27.1523 39.1563 27.3027 39.1563 27.4941C39.1563 27.6855 39.0059 27.8359 38.8145 27.8359Z" fill="black"/>
<path d="M39.2793 33.1543H25.1973C24.9238 33.1543 24.6914 32.9766 24.6094 32.7168C24.3086 31.7324 23.543 30.9531 22.5449 30.6523C22.2852 30.5703 22.1074 30.3379 22.1074 30.0645V24.9238C22.1074 24.6504 22.2852 24.4043 22.5449 24.3359C23.5293 24.0352 24.3086 23.2695 24.6094 22.2715C24.6914 22.0117 24.9238 21.834 25.1973 21.834H39.2793C39.5527 21.834 39.7988 22.0117 39.8672 22.2715C39.9219 22.4492 39.9902 22.6133 40.0723 22.7637C40.1133 22.8457 40.1133 22.9277 40.0996 23.0098C40.0586 23.1328 40.0039 23.2559 39.9492 23.3652C39.8809 23.4746 39.8398 23.584 39.8262 23.707C39.8398 23.8301 39.8809 23.9395 39.9492 24.0352C40.0312 24.1719 40.0859 24.3223 40.127 24.4863C40.1543 24.6504 40.1543 24.8145 40.1406 24.9785C40.127 25.0879 40.127 25.2109 40.1543 25.3203C40.2227 25.416 40.3047 25.5117 40.4004 25.5801C40.6738 25.7715 40.8652 26.0586 40.9336 26.3867C40.9609 26.4961 41.0156 26.6055 41.084 26.7012C41.125 26.7422 41.1797 26.7695 41.248 26.7969C41.4121 26.8652 41.5078 27.043 41.4531 27.2207L40.3047 30.7891L40.4688 30.707C40.6328 30.625 40.8379 30.6934 40.9336 30.8574C41.002 30.9941 40.9746 31.1719 40.8516 31.2676C40.4004 31.6504 40.0723 32.1562 39.9082 32.7168C39.7988 32.9766 39.5527 33.1543 39.2793 33.1543ZM25.252 32.4707H39.2383C39.334 32.1562 39.4844 31.8555 39.6621 31.582C39.6484 31.582 39.6484 31.5684 39.6348 31.5684C39.4844 31.4453 39.4297 31.2402 39.4844 31.0625L40.6875 27.3027C40.6465 27.2754 40.6191 27.248 40.5781 27.207C40.4277 27.043 40.3184 26.8379 40.2637 26.6191C40.2363 26.5234 40.1953 26.4277 40.1406 26.332C40.0723 26.25 40.0039 26.1816 39.9219 26.1133C39.7441 25.9766 39.5938 25.7988 39.498 25.5938C39.4297 25.3887 39.4023 25.1562 39.4434 24.9375C39.457 24.8281 39.457 24.7324 39.4434 24.623C39.416 24.5273 39.375 24.4316 39.334 24.3496C39.2109 24.1582 39.1426 23.9395 39.1289 23.707C39.1426 23.4746 39.2109 23.2559 39.3203 23.0645C39.3477 23.0234 39.3613 22.9824 39.3887 22.9414C39.3203 22.8047 39.2656 22.668 39.2246 22.5176H25.252C24.8828 23.6934 23.9668 24.6094 22.8047 24.9785V30.0371C23.9668 30.3926 24.8828 31.3086 25.252 32.4707Z" fill="black"/>
<path d="M32.2383 31.582C29.9824 31.582 28.1504 29.75 28.1504 27.4941C28.1504 25.2383 29.9824 23.4062 32.2383 23.4062C34.4941 23.4062 36.3262 25.2383 36.3262 27.4941C36.3262 29.75 34.4941 31.582 32.2383 31.582ZM32.2383 24.0898C30.3652 24.0898 28.834 25.6074 28.834 27.4941C28.834 29.3672 30.3516 30.8984 32.2383 30.8984C34.1113 30.8984 35.6426 29.3809 35.6426 27.4941C35.6426 25.6211 34.125 24.0898 32.2383 24.0898Z" fill="black"/>
<path d="M47.0312 27.125C46.8398 27.1797 46.6621 27.248 46.4844 27.3437C46.2383 27.5078 46.0879 27.8359 45.8145 27.959C45.541 28.0684 45.1992 27.9453 44.9121 28C44.707 28.041 44.5156 28.1777 44.2969 28.2598L45.5137 32.0605C45.541 32.1289 45.6094 32.1699 45.6914 32.1426C45.7187 32.1289 45.7598 32.1016 45.7734 32.0742L46.5117 30.6387C46.5527 30.5703 46.6348 30.543 46.6895 30.584L48.125 31.3223C48.1934 31.3496 48.2754 31.3223 48.3027 31.2539C48.3164 31.2266 48.3164 31.1855 48.3164 31.1582L47.0312 27.125Z" fill="#FC657E"/>
<path d="M43.2167 27.9863C42.9296 27.9316 42.5741 28.0547 42.3143 27.9453C42.0409 27.8359 41.8905 27.4941 41.6444 27.3301C41.4667 27.2344 41.289 27.166 41.0975 27.1113L39.7987 31.1445C39.7714 31.2129 39.8124 31.2949 39.8944 31.3223C39.9218 31.3359 39.9628 31.3359 39.9901 31.3086L41.4257 30.5703C41.494 30.543 41.5761 30.5566 41.6034 30.625L42.3417 32.0605C42.3827 32.1289 42.4647 32.1562 42.5194 32.1152C42.5468 32.1016 42.5741 32.0742 42.5878 32.0332L43.8046 28.2324C43.6268 28.1777 43.4218 28.0273 43.2167 27.9863Z" fill="#FC657E"/>
<path d="M48.6582 23.707C48.6582 24.0078 48.4121 24.2812 48.3574 24.5547C48.3027 24.8418 48.4258 25.1973 48.3164 25.457C48.207 25.7305 47.8652 25.8809 47.7012 26.127C47.5371 26.373 47.5234 26.7422 47.3184 26.9473C47.1133 27.1523 46.7441 27.166 46.498 27.3301C46.252 27.4941 46.1016 27.8223 45.8281 27.9453C45.5547 28.0547 45.2129 27.9316 44.9258 27.9863C44.6387 28.041 44.3789 28.2871 44.0781 28.2871C43.7773 28.2871 43.5039 28.041 43.2305 27.9863C42.9434 27.9316 42.5879 28.0547 42.3281 27.9453C42.0547 27.8359 41.9043 27.4941 41.6582 27.3301C41.4121 27.166 41.043 27.1523 40.8379 26.9473C40.6328 26.7422 40.6191 26.373 40.4551 26.127C40.291 25.8809 39.9629 25.7305 39.8398 25.457C39.7305 25.1836 39.8535 24.8418 39.7988 24.5547C39.7441 24.2676 39.498 24.0078 39.498 23.707C39.498 23.4062 39.7441 23.1328 39.7988 22.8594C39.8535 22.5723 39.7305 22.2168 39.8398 21.957C39.9492 21.6836 40.291 21.5332 40.4551 21.2871C40.6191 21.041 40.6328 20.6719 40.8379 20.4668C41.043 20.2617 41.4121 20.248 41.6582 20.084C41.9043 19.9199 42.0547 19.5918 42.3281 19.4688C42.6016 19.3594 42.9434 19.4824 43.2305 19.4277C43.5176 19.373 43.7773 19.127 44.0781 19.127C44.3789 19.127 44.6523 19.373 44.9258 19.4277C45.2129 19.4824 45.5684 19.3594 45.8281 19.4688C46.1016 19.5781 46.252 19.9199 46.498 20.084C46.7441 20.248 47.1133 20.2617 47.3184 20.4668C47.5234 20.6719 47.5371 21.041 47.7012 21.2871C47.8652 21.5332 48.1934 21.6836 48.3164 21.957C48.4258 22.2305 48.3027 22.5723 48.3574 22.8594C48.4121 23.1465 48.6582 23.4062 48.6582 23.707Z" fill="#FCDD86"/>
<path d="M44.0645 20.8086C42.4648 20.8086 41.1523 22.1074 41.1523 23.7207C41.1523 25.334 42.4512 26.6328 44.0645 26.6328C45.6777 26.6328 46.9766 25.334 46.9766 23.7207C46.9766 22.1074 45.6777 20.8086 44.0645 20.8086Z" fill="#F5C84C"/>
<path d="M44.0645 28.6426C43.832 28.6289 43.6133 28.5605 43.4219 28.4375C43.3398 28.3828 43.2441 28.3555 43.1484 28.3281C43.0391 28.3145 42.9434 28.3145 42.834 28.3281C42.3828 28.4238 41.918 28.2324 41.6582 27.8359C41.5488 27.6582 41.3711 27.5488 41.166 27.5078C40.7148 27.4258 40.3594 27.0703 40.2637 26.6055C40.2363 26.5098 40.1953 26.4141 40.1406 26.3184C40.0723 26.2363 40.0039 26.168 39.9219 26.0996C39.7441 25.9629 39.5937 25.7852 39.498 25.5801C39.4297 25.375 39.4023 25.1426 39.4434 24.9238C39.457 24.8145 39.457 24.7188 39.4434 24.6094C39.416 24.5137 39.375 24.418 39.334 24.3359C39.2109 24.1445 39.1426 23.9258 39.1289 23.6934C39.1426 23.4609 39.2109 23.2422 39.334 23.0508C39.3887 22.9687 39.416 22.873 39.4434 22.7773C39.457 22.668 39.457 22.5723 39.4434 22.4629C39.416 22.2441 39.4297 22.0117 39.498 21.8066C39.5937 21.6016 39.7441 21.4238 39.9219 21.2871C40.0039 21.2188 40.0723 21.1504 40.1406 21.0684C40.1953 20.9727 40.2363 20.877 40.2637 20.7812C40.3184 20.5625 40.4277 20.3574 40.5781 20.1934C40.7422 20.043 40.9473 19.9336 41.166 19.8789C41.2617 19.8516 41.3574 19.8105 41.4531 19.7559C41.5352 19.6875 41.6035 19.6191 41.6719 19.5371C41.918 19.1543 42.3965 18.9492 42.8477 19.0449C42.957 19.0586 43.0527 19.0586 43.1621 19.0449C43.2578 19.0176 43.3535 18.9766 43.4355 18.9355C43.8184 18.6758 44.3379 18.6758 44.7207 18.9355C44.8027 18.9902 44.8984 19.0176 44.9941 19.0449C45.1035 19.0586 45.1992 19.0586 45.3086 19.0449C45.7598 18.9492 46.2246 19.1406 46.4844 19.5371C46.5527 19.6191 46.6211 19.6875 46.7031 19.7559C46.7988 19.8105 46.8945 19.8516 46.9902 19.8789C47.209 19.9336 47.4141 20.043 47.5781 20.1934C47.7285 20.3574 47.8379 20.5625 47.8926 20.7812C47.9199 20.877 47.9609 20.9727 48.0156 21.0684C48.084 21.1504 48.1523 21.2188 48.2344 21.2871C48.4121 21.4238 48.5625 21.6016 48.6582 21.8066C48.7266 22.0117 48.7539 22.2441 48.7129 22.4629C48.6992 22.5723 48.6992 22.668 48.7129 22.7773C48.7402 22.873 48.7812 22.9687 48.8223 23.0508C48.9453 23.2422 49.0137 23.4609 49.0273 23.6934C49.0137 23.9258 48.9453 24.1445 48.8223 24.3359C48.7676 24.418 48.7402 24.5137 48.7129 24.6094C48.6992 24.7188 48.6992 24.8145 48.7129 24.9238C48.7402 25.1426 48.7266 25.375 48.6582 25.5801C48.5625 25.7852 48.4121 25.9629 48.2344 26.0996C48.1523 26.168 48.084 26.2363 48.0156 26.3184C47.9609 26.4141 47.9199 26.5098 47.8926 26.6055C47.8105 27.0566 47.4551 27.4121 46.9902 27.5078C46.7852 27.5488 46.6074 27.6719 46.498 27.8359C46.252 28.2188 45.7734 28.4238 45.3223 28.3281C45.2129 28.3145 45.1172 28.3145 45.0078 28.3281C44.9121 28.3555 44.8164 28.3965 44.7344 28.4375C44.5156 28.5605 44.2969 28.6289 44.0645 28.6426ZM43.0391 27.6309C43.1211 27.6309 43.2031 27.6309 43.2852 27.6582C43.4492 27.6992 43.5996 27.7539 43.7363 27.8359C43.9277 28 44.2148 28 44.4062 27.8359C44.543 27.7539 44.6934 27.6992 44.8574 27.6582C45.0215 27.6309 45.1855 27.6309 45.3496 27.6445C45.459 27.6582 45.582 27.6582 45.6914 27.6309C45.7871 27.5625 45.8828 27.4805 45.9512 27.3848C46.1426 27.1113 46.4297 26.9199 46.7578 26.8516C46.8672 26.8242 46.9766 26.7695 47.0723 26.7012C47.1406 26.6055 47.1953 26.4961 47.2227 26.3867C47.3047 26.0586 47.4961 25.7852 47.7559 25.5801C47.8516 25.5117 47.9336 25.4297 48.002 25.3203C48.0293 25.2109 48.0293 25.0879 48.0156 24.9785C48.002 24.8145 48.002 24.6504 48.0293 24.4863C48.0703 24.3223 48.125 24.1719 48.207 24.0352C48.2754 23.9395 48.3164 23.8164 48.3301 23.707C48.3164 23.584 48.2754 23.4746 48.207 23.3789C48.125 23.2422 48.0703 23.0918 48.0293 22.9277C48.002 22.7637 48.002 22.5996 48.0156 22.4355C48.0293 22.3262 48.0293 22.2031 48.002 22.0938C47.9336 21.998 47.8516 21.9023 47.7559 21.834C47.6328 21.7383 47.5098 21.6152 47.4141 21.4785C47.332 21.3418 47.2637 21.1914 47.2227 21.0273C47.1953 20.918 47.1406 20.8086 47.0723 20.7129C46.9766 20.6445 46.8672 20.5898 46.7578 20.5625C46.5938 20.5215 46.4434 20.4531 46.3066 20.3711C46.1699 20.2754 46.0605 20.166 45.9512 20.0293C45.8828 19.9336 45.8008 19.8516 45.6914 19.7832C45.582 19.7559 45.459 19.7559 45.3496 19.7695C45.1855 19.7832 45.0215 19.7832 44.8574 19.7559C44.6934 19.7148 44.543 19.6602 44.4062 19.5781C44.2148 19.4141 43.9277 19.4141 43.7363 19.5781C43.5996 19.6602 43.4492 19.7148 43.2852 19.7559C43.1211 19.7832 42.957 19.7832 42.793 19.7695C42.6836 19.7559 42.5605 19.7559 42.4512 19.7832C42.3555 19.8516 42.2598 19.9336 42.1914 20.0293C42.0957 20.1523 41.9727 20.2754 41.8359 20.3711C41.6992 20.4531 41.5488 20.5215 41.3848 20.5625C41.2754 20.5898 41.166 20.6445 41.0703 20.7129C41.002 20.8086 40.9473 20.918 40.9199 21.0273C40.8789 21.1914 40.8105 21.3418 40.7285 21.4785C40.6328 21.6152 40.5234 21.7246 40.3867 21.834C40.291 21.9023 40.209 21.9844 40.1406 22.0938C40.1133 22.2031 40.1133 22.3262 40.127 22.4355C40.1406 22.5996 40.1406 22.7637 40.1133 22.9277C40.0723 23.0918 40.0176 23.2422 39.9355 23.3789C39.8672 23.4746 39.8262 23.5977 39.8125 23.707C39.8262 23.8301 39.8672 23.9395 39.9355 24.0352C40.0176 24.1719 40.0723 24.3223 40.1133 24.4863C40.1406 24.6504 40.1406 24.8145 40.127 24.9785C40.1133 25.0879 40.1133 25.2109 40.1406 25.3203C40.209 25.416 40.291 25.5117 40.3867 25.5801C40.6602 25.7715 40.8516 26.0586 40.9199 26.3867C40.9473 26.4961 41.002 26.6055 41.0703 26.7012C41.166 26.7695 41.2754 26.8242 41.3848 26.8516C41.7129 26.9336 41.9863 27.125 42.1914 27.3848C42.2598 27.4805 42.3418 27.5625 42.4512 27.6309C42.5605 27.6582 42.6836 27.6582 42.793 27.6445C42.875 27.6445 42.957 27.6309 43.0391 27.6309Z" fill="black"/>
<path d="M43.7637 24.8008C43.668 24.8008 43.5859 24.7597 43.5176 24.7051L42.6016 23.789C42.4649 23.6523 42.4785 23.4336 42.6152 23.3105C42.752 23.1875 42.957 23.1875 43.0938 23.3105L43.7637 23.9804L45.0488 22.6953C45.1856 22.5586 45.3906 22.5586 45.5274 22.6816C45.6641 22.8047 45.6641 23.0234 45.541 23.1601C45.541 23.1601 45.541 23.1601 45.5274 23.1738L43.9961 24.7051C43.9414 24.7734 43.8594 24.8008 43.7637 24.8008Z" fill="black"/>
<path d="M45.6641 32.4843C45.6505 32.4843 45.6368 32.4843 45.6231 32.4843C45.4317 32.4707 45.2676 32.334 45.213 32.1562L43.9962 28.3554C43.9415 28.1777 44.0372 27.9863 44.2012 27.9316C44.2696 27.9043 44.338 27.8769 44.4063 27.8359C44.543 27.7539 44.6934 27.6992 44.8575 27.6582C45.0216 27.6308 45.1856 27.6308 45.3497 27.6445C45.4591 27.6582 45.5821 27.6582 45.6915 27.6308C45.7872 27.5625 45.8829 27.4804 45.9512 27.3847C46.0469 27.2617 46.17 27.1386 46.3067 27.0429C46.4434 26.9609 46.5938 26.8926 46.7579 26.8515C46.8126 26.8379 46.8673 26.8105 46.9083 26.7968C47.086 26.7285 47.2774 26.8105 47.3458 26.9883C47.3458 26.9883 47.3458 27.0019 47.3594 27.0019L48.6583 31.0351C48.7403 31.2812 48.6036 31.5547 48.3438 31.6367C48.2208 31.6777 48.0977 31.664 47.9747 31.6093L46.7305 30.9668L46.088 32.2109C46.0059 32.3886 45.8419 32.4843 45.6641 32.4843ZM44.7344 28.4375L45.7051 31.4863L46.211 30.4883C46.3341 30.2558 46.6212 30.1601 46.8536 30.2832L47.8516 30.789L46.8126 27.5625C46.7716 27.5761 46.7169 27.6035 46.6758 27.6308C46.5938 27.6992 46.5255 27.7676 46.4571 27.8496C46.211 28.2324 45.7325 28.4375 45.2813 28.3418C45.1719 28.3281 45.0762 28.3281 44.9669 28.3418C44.8985 28.3554 44.8165 28.3828 44.7344 28.4375Z" fill="black"/>
<path d="M42.4784 32.4843C42.3007 32.4843 42.1366 32.3886 42.0546 32.2246L41.412 30.9804L40.1679 31.623C39.9355 31.7461 39.6484 31.6504 39.5253 31.4179C39.4706 31.3086 39.457 31.1718 39.498 31.0488L40.7968 27.0156C40.8515 26.8379 41.0429 26.7422 41.2206 26.7968H41.2343C41.289 26.8105 41.3437 26.8379 41.3847 26.8515C41.7128 26.9336 41.9863 27.125 42.1913 27.3847C42.2597 27.4804 42.3417 27.5625 42.4511 27.6308C42.5605 27.6582 42.6835 27.6582 42.7929 27.6445C42.957 27.6308 43.121 27.6308 43.2851 27.6582C43.4491 27.6992 43.5995 27.7539 43.7363 27.8359C43.8046 27.8769 43.873 27.9043 43.9413 27.9316C44.1191 28 44.2011 28.1777 44.1464 28.3554L42.9296 32.1562C42.8749 32.334 42.7109 32.4707 42.5195 32.4843C42.5058 32.4843 42.4921 32.4843 42.4784 32.4843ZM41.4941 30.2285C41.6718 30.2285 41.8359 30.3242 41.9179 30.4883L42.4237 31.4863L43.3945 28.4375C43.3124 28.3965 43.2304 28.3554 43.1347 28.3281C43.0253 28.3144 42.9296 28.3144 42.8202 28.3281C42.3691 28.4238 41.9042 28.2324 41.6445 27.8359C41.5761 27.7539 41.5077 27.6855 41.4257 27.6172C41.3847 27.5898 41.3437 27.5761 41.289 27.5488L40.2499 30.7754L41.248 30.2695C41.3437 30.2422 41.4257 30.2285 41.4941 30.2285Z" fill="black"/>
<path d="M44.0645 26.9609C42.2734 26.9609 40.8105 25.5117 40.8105 23.707C40.8105 21.916 42.2598 20.4531 44.0645 20.4531C45.8555 20.4531 47.3184 21.9023 47.3184 23.707C47.3184 25.5117 45.8691 26.9609 44.0645 26.9609ZM44.0645 21.1504C42.6426 21.1504 41.4941 22.2988 41.4941 23.7207C41.4941 25.1426 42.6426 26.291 44.0645 26.291C45.4863 26.291 46.6348 25.1426 46.6348 23.7207C46.6348 22.2988 45.4863 21.1504 44.0645 21.1504Z" fill="black"/>
</g>
<defs>
<clipPath id="clip0_75_712">
<rect width="35" height="35" fill="white" transform="translate(14 14)"/>
</clipPath>
</defs>
</svg>
